<svg width="15" height="16" viewBox="0 0 15 16" fill="none" xmlns="http://www.w3.org/2000/svg">
<path d="M6 0.277322C6.09761 0.395934 6.15741 0.541094 6.17168 0.694045C6.18594 0.846995 6.154 1.00071 6.08 1.13532C5.50186 2.1968 5.19993 3.38662 5.202 4.59532C5.202 8.61632 8.48 11.8723 12.52 11.8723C13.047 11.8723 13.56 11.8173 14.053 11.7123C14.2041 11.6796 14.3615 11.6921 14.5056 11.7483C14.6497 11.8045 14.774 11.9019 14.863 12.0283C14.957 12.1598 15.0049 12.3186 14.9993 12.4801C14.9937 12.6416 14.9349 12.7967 14.832 12.9213C14.0477 13.8848 13.0582 14.661 11.9358 15.1935C10.8134 15.726 9.58632 16.0013 8.344 15.9993C3.734 15.9993 0 12.2853 0 7.70932C0 4.26532 2.114 1.31132 5.124 0.0593219C5.27394 -0.00404621 5.44039 -0.0170522 5.59835 0.0222576C5.75631 0.0615674 5.89725 0.151071 6 0.277322Z" fill="#5F5F5F"/>
</svg>
