<svg width="101" height="20" viewBox="0 0 101 20" fill="none" xmlns="http://www.w3.org/2000/svg">
<path d="M7.03851 4.27954C7.45531 4.27954 7.87883 4.32219 8.30907 4.40749C8.73932 4.48622 9.12251 4.59451 9.45863 4.7323C10.0502 5.74281 10.588 6.773 11.072 7.82289C11.5628 8.8662 11.9998 9.94242 12.3829 11.0513C12.6451 11.084 12.9107 11.1201 13.1796 11.1596C13.4485 11.1924 13.7207 11.2285 13.9964 11.2678V13.7875L13.1292 13.5513C13.3712 14.529 13.5762 15.5265 13.7443 16.5434C13.9123 17.5605 14.0367 18.5973 14.1174 19.6538H11.7174C11.6166 18.5251 11.4485 17.4097 11.2132 16.3072C10.9779 15.2049 10.709 14.1485 10.4065 13.1379C9.75443 13.0854 9.13259 13.046 8.54101 13.0198C7.95615 12.9936 7.45531 12.9804 7.03851 12.9804C6.48054 12.9804 5.92594 12.9903 5.37469 13.0099C4.82343 13.0296 4.26883 13.0657 3.71085 13.1183C3.40834 14.1287 3.13608 15.1851 2.89406 16.2876C2.65877 17.3899 2.49407 18.512 2.39995 19.6538H0C0.0739486 18.5973 0.191594 17.5639 0.352936 16.5533C0.520999 15.5428 0.726029 14.5486 0.96805 13.571L0.181509 13.7875V11.2678L1.73442 11.0513C2.11088 9.94242 2.54112 8.8662 3.02515 7.82289C3.5159 6.773 4.06042 5.74281 4.65873 4.7323C4.99485 4.59451 5.37469 4.48622 5.79821 4.40749C6.22172 4.32219 6.63517 4.27954 7.03851 4.27954ZM7.03851 10.756C7.44187 10.756 7.85868 10.7625 8.28892 10.7756C8.71916 10.7823 9.16285 10.802 9.61997 10.8347C9.27712 9.9226 8.93764 9.13196 8.60152 8.46266C8.27211 7.7868 7.98639 7.26514 7.74439 6.89768C7.62339 6.84519 7.50909 6.8091 7.40153 6.78942C7.29397 6.76973 7.17297 6.75989 7.03851 6.75989C6.82339 6.75989 6.60156 6.80581 6.37298 6.89768C6.13097 7.26514 5.8419 7.7868 5.50578 8.46266C5.16965 9.13196 4.83351 9.9226 4.49739 10.8347C4.94107 10.802 5.37469 10.7823 5.79821 10.7756C6.22845 10.7625 6.64188 10.756 7.03851 10.756Z" fill="white"/>
<path fill-rule="evenodd" clip-rule="evenodd" d="M16.4893 17.4702V6.41746H19.0505V17.4702H19.0607V19.654H16.4792V17.4702H16.4893ZM18.9598 2.76583C18.6706 2.6018 18.2774 2.51978 17.78 2.51978C17.3026 2.51978 16.9161 2.6018 16.6203 2.76583C16.3313 2.92332 16.1868 3.17596 16.1868 3.52373V4.01585C16.1868 4.33081 16.3313 4.5572 16.6203 4.695C16.9161 4.83279 17.3026 4.9017 17.78 4.9017C18.2774 4.9017 18.6706 4.83279 18.9598 4.695C19.2489 4.5572 19.3935 4.33081 19.3935 4.01585V3.52373C19.3935 3.17596 19.2489 2.92332 18.9598 2.76583Z" fill="white"/>
<path fill-rule="evenodd" clip-rule="evenodd" d="M30.7707 6.20154C30.8177 5.46005 30.8412 4.7481 30.8412 4.06567C30.2563 4.07879 29.742 4.0952 29.2984 4.11489C28.8614 4.12801 28.4647 4.15427 28.1085 4.19362C27.759 4.233 27.4363 4.28549 27.1404 4.35111C26.8513 4.41017 26.5691 4.49547 26.2934 4.60703C26.0244 4.71857 25.7454 4.85638 25.4565 5.02041C25.1673 5.17789 24.8514 5.37148 24.5086 5.60114C24.327 5.31898 24.1186 5.08275 23.8833 4.89246C23.6548 4.6956 23.4362 4.53484 23.2278 4.41017C22.9858 4.26581 22.7404 4.15097 22.4917 4.06567L21.4229 5.99484C21.5776 6.06702 21.7152 6.15889 21.8364 6.27043C21.944 6.3623 22.0446 6.4804 22.1388 6.62477C22.2396 6.76913 22.3035 6.9463 22.3305 7.15627V15.2863H24.912V7.21532C25.0397 7.13659 25.1842 7.0316 25.3455 6.90036C25.5069 6.76913 25.7153 6.64118 25.9707 6.5165C26.2261 6.38526 26.5455 6.27372 26.9286 6.18185C27.3186 6.08341 27.8094 6.02764 28.4009 6.01452C28.4009 6.34918 28.3808 6.66742 28.3405 6.96926C28.3068 7.26454 28.2697 7.52373 28.2295 7.74683C28.1756 8.0093 28.1185 8.25208 28.0581 8.47518H30.4984C30.6328 7.69433 30.7235 6.93645 30.7707 6.20154ZM22.3304 15.2866H24.9119V19.6541H22.3304V15.2866Z" fill="white"/>
<path fill-rule="evenodd" clip-rule="evenodd" d="M33.0107 13.4384V3.89769H35.5718V13.4384H35.5818V19.6537H33.0004V13.4384H33.0107ZM35.4811 0.246059C35.192 0.0820255 34.7988 0 34.3014 0C33.824 0 33.4375 0.0820255 33.1416 0.246059C32.8527 0.403542 32.7081 0.656185 32.7081 1.00396V1.49607C32.7081 1.81104 32.8527 2.03743 33.1416 2.17522C33.4375 2.31302 33.824 2.38192 34.3014 2.38192C34.7988 2.38192 35.192 2.31302 35.4811 2.17522C35.7703 2.03743 35.9148 1.81104 35.9148 1.49607V1.00396C35.9148 0.656185 35.7703 0.403542 35.4811 0.246059Z" fill="white"/>
<path d="M49.1671 19.9873C48.1417 19.9873 47.1725 19.8122 46.2595 19.4621C45.3591 19.0994 44.49 18.5679 43.6521 17.8676L44.8714 16.2168C45.7218 16.9046 46.4784 17.3986 47.1412 17.6988C47.8165 17.9864 48.5356 18.1302 49.2984 18.1302C49.8737 18.1302 50.3802 18.0427 50.8179 17.8676C51.2681 17.68 51.612 17.4299 51.8496 17.1172C52.0997 16.8046 52.2248 16.4419 52.2248 16.0292C52.2248 15.4915 52.0435 15.085 51.6808 14.8099C51.3306 14.5223 50.7178 14.3034 49.8424 14.1534L47.4226 13.7407C46.2846 13.5406 45.4342 13.1592 44.8714 12.5964C44.3212 12.0211 44.046 11.2896 44.046 10.4016C44.046 9.61379 44.2461 8.92597 44.6463 8.3382C45.0465 7.73792 45.603 7.27521 46.3158 6.95006C47.0412 6.61241 47.8978 6.44358 48.8858 6.44358C49.8737 6.44358 50.8116 6.58739 51.6995 6.87503C52.5875 7.16266 53.4066 7.5816 54.1569 8.13185L53.0127 9.82013C52.3498 9.3199 51.6683 8.94473 50.968 8.69461C50.2676 8.43199 49.5486 8.30068 48.8107 8.30068C48.2855 8.30068 47.8228 8.38197 47.4226 8.54454C47.0349 8.70712 46.7285 8.93222 46.5034 9.21985C46.2908 9.50749 46.1845 9.82638 46.1845 10.1765C46.1845 10.6518 46.3408 11.0207 46.6535 11.2833C46.9786 11.5334 47.4976 11.721 48.2104 11.8461L50.5553 12.24C51.8809 12.4776 52.8563 12.8903 53.4816 13.4781C54.1194 14.0658 54.4383 14.8599 54.4383 15.8604C54.4383 16.6608 54.2132 17.3736 53.763 17.9989C53.3253 18.6242 52.7125 19.1119 51.9247 19.4621C51.1368 19.8122 50.2176 19.9873 49.1671 19.9873Z" fill="white"/>
<path d="M60.236 19.9685C59.2856 19.9685 58.5665 19.7497 58.0788 19.312C57.5911 18.8618 57.3472 18.2052 57.3472 17.3423V12.0712H55.4714V10.3829H57.3472V7.7942L59.4669 7.34399V10.3829H62.0744V12.0712H59.4669V16.8734C59.4669 17.3361 59.567 17.6675 59.7671 17.8676C59.9672 18.0552 60.3048 18.149 60.78 18.149C60.9926 18.149 61.1865 18.1365 61.3616 18.1114C61.5491 18.0739 61.7805 18.0114 62.0556 17.9239V19.7059C61.793 19.7935 61.4929 19.856 61.1552 19.8935C60.8301 19.9435 60.5237 19.9685 60.236 19.9685Z" fill="white"/>
<path d="M67.1591 19.931C66.5088 19.931 65.9398 19.7872 65.4521 19.4996C64.9644 19.2119 64.5767 18.818 64.2891 18.3178C64.0139 17.8176 63.8764 17.236 63.8764 16.5732V10.3829H66.0149V15.9542C66.0149 16.6545 66.1962 17.211 66.5589 17.6237C66.934 18.0239 67.4405 18.224 68.0783 18.224C68.5035 18.224 68.8849 18.1302 69.2226 17.9426C69.5728 17.755 69.8729 17.4736 70.123 17.0985V10.3829H72.2427V19.781H70.123V18.2615C69.7603 18.8118 69.3289 19.2307 68.8287 19.5183C68.3284 19.7935 67.7719 19.931 67.1591 19.931Z" fill="white"/>
<path d="M78.6775 19.8748C77.8897 19.8748 77.1768 19.6622 76.539 19.237C75.9012 18.7993 75.3885 18.224 75.0008 17.5112C74.6257 16.7858 74.4381 15.9792 74.4381 15.0913C74.4381 14.1909 74.6319 13.3843 75.0196 12.6714C75.4073 11.9461 75.9325 11.3708 76.5953 10.9456C77.2706 10.5205 78.0147 10.3079 78.8276 10.3079C79.3653 10.3079 79.8656 10.4142 80.3283 10.6268C80.8035 10.8268 81.2162 11.127 81.5664 11.5272V6.33103L83.6861 5.95585V19.781H81.5851V18.5429C81.2475 18.9681 80.8285 19.2995 80.3283 19.5371C79.8281 19.7622 79.2778 19.8748 78.6775 19.8748ZM79.3341 18.0927C79.7843 18.0927 80.2032 18.0051 80.5909 17.8301C80.9786 17.6425 81.3037 17.3861 81.5664 17.061V13.1029C81.2912 12.7777 80.9598 12.5276 80.5721 12.3525C80.1845 12.1775 79.7718 12.0899 79.3341 12.0899C78.7963 12.0899 78.3149 12.2212 77.8897 12.4839C77.477 12.734 77.1456 13.0841 76.8955 13.5343C76.6453 13.9845 76.5203 14.5035 76.5203 15.0913C76.5203 15.6541 76.6453 16.1668 76.8955 16.6295C77.1456 17.0797 77.477 17.4361 77.8897 17.6988C78.3149 17.9614 78.7963 18.0927 79.3341 18.0927Z" fill="white"/>
<path d="M86.3001 19.781V10.3829H88.4198V19.781H86.3001ZM87.3694 8.46951C87.0067 8.46951 86.694 8.34445 86.4314 8.09434C86.1813 7.83172 86.0563 7.52532 86.0563 7.17516C86.0563 6.8125 86.1813 6.50611 86.4314 6.25599C86.694 5.99337 87.0067 5.86206 87.3694 5.86206C87.732 5.86206 88.0384 5.99337 88.2885 6.25599C88.5512 6.50611 88.6825 6.80624 88.6825 7.15641C88.6825 7.51907 88.5512 7.83172 88.2885 8.09434C88.0384 8.34445 87.732 8.46951 87.3694 8.46951Z" fill="white"/>
<path d="M95.3409 19.9498C94.453 19.9498 93.6464 19.7372 92.921 19.312C92.2082 18.8868 91.6454 18.3115 91.2328 17.5862C90.8201 16.8484 90.6137 16.0167 90.6137 15.0913C90.6137 14.1659 90.8201 13.3405 91.2328 12.6152C91.6454 11.8773 92.2082 11.2958 92.921 10.8706C93.6339 10.4454 94.4405 10.2328 95.3409 10.2328C96.2413 10.2328 97.0417 10.4454 97.742 10.8706C98.4548 11.2958 99.0176 11.8773 99.4303 12.6152C99.843 13.3405 100.049 14.1659 100.049 15.0913C100.049 16.0167 99.843 16.8484 99.4303 17.5862C99.0176 18.3115 98.4548 18.8868 97.742 19.312C97.0417 19.7372 96.2413 19.9498 95.3409 19.9498ZM95.3409 18.149C95.8536 18.149 96.3038 18.0176 96.6915 17.755C97.0917 17.4924 97.4043 17.1297 97.6294 16.667C97.8545 16.1918 97.9671 15.6666 97.9671 15.0913C97.9671 14.5035 97.8545 13.9845 97.6294 13.5343C97.4043 13.0716 97.0917 12.709 96.6915 12.4463C96.3038 12.1712 95.8536 12.0336 95.3409 12.0336C94.8282 12.0336 94.3717 12.1712 93.9715 12.4463C93.5713 12.709 93.2587 13.0716 93.0336 13.5343C92.8085 13.9845 92.6959 14.5035 92.6959 15.0913C92.6959 15.6791 92.8085 16.2043 93.0336 16.667C93.2587 17.1297 93.5713 17.4924 93.9715 17.755C94.3717 18.0176 94.8282 18.149 95.3409 18.149Z" fill="white"/>
</svg>
