<svg width="12" height="12" viewBox="0 0 12 12" fill="none" xmlns="http://www.w3.org/2000/svg">
<path d="M9.38829 7.038C9.74199 7.03801 10.0814 7.17753 10.3329 7.42628C10.4271 7.52057 10.5317 7.61829 10.6474 7.72114L11.016 8.04943C11.1446 8.16514 11.2654 8.286 11.3769 8.41028C11.4883 8.53543 11.5937 8.66314 11.6923 8.79257C11.79 8.92114 11.8637 9.06 11.9126 9.20743C11.9623 9.35486 11.9914 9.50229 12 9.64971C11.9997 10.0031 11.8602 10.3421 11.6117 10.5934C11.3837 10.8214 11.1789 11.022 10.9954 11.1969C10.8217 11.3635 10.631 11.5115 10.4263 11.6383C10.2291 11.7583 10.0089 11.8483 9.76371 11.9066C9.47993 11.9688 9.19024 12.0001 8.89971 12C8.39134 11.9966 7.88612 11.9199 7.39971 11.772C6.86882 11.6133 6.3549 11.4026 5.86543 11.1429C5.34229 10.8657 4.84314 10.5454 4.37314 10.1854C3.88544 9.81411 3.42431 9.40912 2.99314 8.97343C2.56029 8.53629 2.15829 8.07343 1.788 7.58743C1.42991 7.12054 1.11382 6.62288 0.843429 6.10029C0.591947 5.61374 0.38593 5.10501 0.228 4.58057C0.0808915 4.1031 0.00408591 3.60675 0 3.10714C0 2.76771 0.0291429 2.478 0.0874286 2.23629C0.14147 2.00499 0.231726 1.78369 0.354857 1.58057C0.474857 1.38343 0.623143 1.19486 0.797143 1.01143C0.971143 0.828 1.17429 0.620572 1.40571 0.388286C1.65738 0.139326 1.99715 -0.000216466 2.35114 2.52055e-07C2.574 2.52055e-07 2.78829 0.0600003 2.994 0.18C3.19971 0.301715 3.39857 0.448286 3.59057 0.623143C3.78171 0.797143 3.95914 0.979715 4.11943 1.17171C4.27971 1.36371 4.43143 1.52914 4.57371 1.66714C4.82247 1.91859 4.96199 2.25801 4.962 2.61171C4.96507 2.77216 4.93592 2.93159 4.87629 3.08057C4.82202 3.21264 4.74992 3.33665 4.662 3.44914C4.57625 3.55686 4.48195 3.65747 4.38 3.75C4.27714 3.84429 4.18371 3.93343 4.09886 4.01829C4.0201 4.09621 3.94624 4.17894 3.87771 4.266C3.81698 4.34148 3.78617 4.43668 3.79114 4.53343C3.79114 4.58743 3.83143 4.67229 3.91114 4.788C4.01464 4.93273 4.12654 5.07125 4.24629 5.20286C4.57918 5.57689 4.9254 5.93884 5.28429 6.288C5.48486 6.48514 5.67943 6.67371 5.86714 6.85714C6.054 7.04057 6.23571 7.21457 6.40971 7.38C6.58371 7.54457 6.73114 7.68514 6.85114 7.80171C6.97114 7.91743 7.06543 8.00743 7.13229 8.06914C7.20864 8.14833 7.31096 8.19737 7.42051 8.20728C7.53006 8.2172 7.63953 8.18733 7.72886 8.12314C7.80857 8.06486 7.89171 7.99286 7.97657 7.90886C8.06143 7.82314 8.148 7.72971 8.23714 7.62686C8.32629 7.524 8.42914 7.43057 8.54571 7.34571C8.66143 7.26086 8.784 7.18714 8.91429 7.12457C9.06356 7.05877 9.22625 7.02911 9.38914 7.038H9.38829Z" fill="white"/>
</svg>
