<svg width="18" height="18" viewBox="0 0 18 18" fill="none" xmlns="http://www.w3.org/2000/svg">
    <path d="M8.99997 4.90918C7.91499 4.90918 6.87445 5.34018 6.10726 6.10738C5.34006 6.87457 4.90906 7.91511 4.90906 9.00009C4.90906 10.0851 5.34006 11.1256 6.10726 11.8928C6.87445 12.66 7.91499 13.091 8.99997 13.091C10.0849 13.091 11.1255 12.66 11.8927 11.8928C12.6599 11.1256 13.0909 10.0851 13.0909 9.00009C13.0909 7.91511 12.6599 6.87457 11.8927 6.10738C11.1255 5.34018 10.0849 4.90918 8.99997 4.90918Z" fill="#E85353"/>
    <path fill-rule="evenodd" clip-rule="evenodd" d="M9 0C9.217 0 9.4251 0.086201 9.57854 0.23964C9.73198 0.393079 9.81818 0.601186 9.81818 0.818182V1.63636C9.81818 1.85336 9.73198 2.06147 9.57854 2.21491C9.4251 2.36834 9.217 2.45455 9 2.45455C8.783 2.45455 8.5749 2.36834 8.42146 2.21491C8.26802 2.06147 8.18182 1.85336 8.18182 1.63636V0.818182C8.18182 0.601186 8.26802 0.393079 8.42146 0.23964C8.5749 0.086201 8.783 0 9 0V0ZM1.87609 1.87609C2.02952 1.72271 2.23759 1.63654 2.45455 1.63654C2.6715 1.63654 2.87957 1.72271 3.033 1.87609L4.26027 3.10336C4.40931 3.25767 4.49178 3.46435 4.48992 3.67887C4.48805 3.8934 4.402 4.09861 4.25031 4.25031C4.09861 4.402 3.8934 4.48805 3.67887 4.48992C3.46435 4.49178 3.25767 4.40931 3.10336 4.26027L1.87609 3.033C1.72271 2.87957 1.63654 2.6715 1.63654 2.45455C1.63654 2.23759 1.72271 2.02952 1.87609 1.87609V1.87609ZM16.1239 1.87609C16.2773 2.02952 16.3635 2.23759 16.3635 2.45455C16.3635 2.6715 16.2773 2.87957 16.1239 3.033L14.8966 4.26027C14.8212 4.33842 14.7309 4.40075 14.6311 4.44363C14.5312 4.48651 14.4239 4.50908 14.3152 4.51002C14.2066 4.51097 14.0989 4.49027 13.9983 4.44913C13.8978 4.40799 13.8064 4.34724 13.7296 4.27041C13.6528 4.19359 13.592 4.10224 13.5509 4.00169C13.5097 3.90114 13.489 3.7934 13.49 3.68476C13.4909 3.57612 13.5135 3.46876 13.5564 3.36894C13.5993 3.26912 13.6616 3.17884 13.7397 3.10336L14.967 1.87609C15.1204 1.72271 15.3285 1.63654 15.5455 1.63654C15.7624 1.63654 15.9705 1.72271 16.1239 1.87609ZM0 9C0 8.783 0.086201 8.5749 0.23964 8.42146C0.393079 8.26802 0.601186 8.18182 0.818182 8.18182H1.63636C1.85336 8.18182 2.06147 8.26802 2.21491 8.42146C2.36834 8.5749 2.45455 8.783 2.45455 9C2.45455 9.217 2.36834 9.4251 2.21491 9.57854C2.06147 9.73198 1.85336 9.81818 1.63636 9.81818H0.818182C0.601186 9.81818 0.393079 9.73198 0.23964 9.57854C0.086201 9.4251 0 9.217 0 9ZM15.5455 9C15.5455 8.783 15.6317 8.5749 15.7851 8.42146C15.9385 8.26802 16.1466 8.18182 16.3636 8.18182H17.1818C17.3988 8.18182 17.6069 8.26802 17.7604 8.42146C17.9138 8.5749 18 8.783 18 9C18 9.217 17.9138 9.4251 17.7604 9.57854C17.6069 9.73198 17.3988 9.81818 17.1818 9.81818H16.3636C16.1466 9.81818 15.9385 9.73198 15.7851 9.57854C15.6317 9.4251 15.5455 9.217 15.5455 9ZM4.26027 13.7397C4.41366 13.8932 4.49983 14.1012 4.49983 14.3182C4.49983 14.5351 4.41366 14.7432 4.26027 14.8966L3.033 16.1239C2.87869 16.2729 2.67201 16.3554 2.45749 16.3536C2.24297 16.3517 2.03776 16.2656 1.88606 16.1139C1.73436 15.9622 1.64831 15.757 1.64645 15.5425C1.64458 15.328 1.72705 15.1213 1.87609 14.967L3.10336 13.7397C3.2568 13.5863 3.46487 13.5002 3.68182 13.5002C3.89877 13.5002 4.10684 13.5863 4.26027 13.7397V13.7397ZM13.7397 13.7397C13.8932 13.5863 14.1012 13.5002 14.3182 13.5002C14.5351 13.5002 14.7432 13.5863 14.8966 13.7397L16.1239 14.967C16.2729 15.1213 16.3554 15.328 16.3536 15.5425C16.3517 15.757 16.2656 15.9622 16.1139 16.1139C15.9622 16.2656 15.757 16.3517 15.5425 16.3536C15.328 16.3554 15.1213 16.2729 14.967 16.1239L13.7397 14.8966C13.5863 14.7432 13.5002 14.5351 13.5002 14.3182C13.5002 14.1012 13.5863 13.8932 13.7397 13.7397ZM9 15.5455C9.217 15.5455 9.4251 15.6317 9.57854 15.7851C9.73198 15.9385 9.81818 16.1466 9.81818 16.3636V17.1818C9.81818 17.3988 9.73198 17.6069 9.57854 17.7604C9.4251 17.9138 9.217 18 9 18C8.783 18 8.5749 17.9138 8.42146 17.7604C8.26802 17.6069 8.18182 17.3988 8.18182 17.1818V16.3636C8.18182 16.1466 8.26802 15.9385 8.42146 15.7851C8.5749 15.6317 8.783 15.5455 9 15.5455V15.5455Z" fill="#E85353"/>
</svg>
